<svg xmlns="http://www.w3.org/2000/svg" width="1400" height="900" viewBox="0 0 1400 900" role="img" aria-label="Core Data Model">
  <rect width="1400" height="900" fill="#F7F3EA"/>
  <text x="700" y="52" text-anchor="middle" font-family="Arial, Helvetica, sans-serif" font-size="30" font-weight="700" fill="#11263C">Core Data Model</text>
  <text x="700" y="82" text-anchor="middle" font-family="Arial, Helvetica, sans-serif" font-size="16" fill="#53616E">Entities required for product, payments, AI logs, and evidence</text>
  <rect x="90" y="150" width="190" height="90" rx="16" fill="#FFFFFF" stroke="#C7BDAF" stroke-width="2"/>
  <text x="185.0" y="185" text-anchor="middle" font-family="Arial, Helvetica, sans-serif" font-size="18" font-weight="700" fill="#1F2933">Users</text>
  <rect x="360" y="150" width="190" height="90" rx="16" fill="#FFFFFF" stroke="#C7BDAF" stroke-width="2"/>
  <text x="455.0" y="185" text-anchor="middle" font-family="Arial, Helvetica, sans-serif" font-size="18" font-weight="700" fill="#1F2933">Agents</text>
  <rect x="630" y="150" width="190" height="90" rx="16" fill="#FFFFFF" stroke="#C7BDAF" stroke-width="2"/>
  <text x="725.0" y="185" text-anchor="middle" font-family="Arial, Helvetica, sans-serif" font-size="18" font-weight="700" fill="#1F2933">Cohorts</text>
  <rect x="900" y="150" width="190" height="90" rx="16" fill="#FFFFFF" stroke="#C7BDAF" stroke-width="2"/>
  <text x="995.0" y="185" text-anchor="middle" font-family="Arial, Helvetica, sans-serif" font-size="18" font-weight="700" fill="#1F2933">Organizations</text>
  <rect x="225" y="390" width="190" height="90" rx="16" fill="#FFFFFF" stroke="#C7BDAF" stroke-width="2"/>
  <text x="320.0" y="425" text-anchor="middle" font-family="Arial, Helvetica, sans-serif" font-size="18" font-weight="700" fill="#1F2933">Merchants</text>
  <rect x="495" y="390" width="190" height="90" rx="16" fill="#FFFFFF" stroke="#C7BDAF" stroke-width="2"/>
  <text x="590.0" y="425" text-anchor="middle" font-family="Arial, Helvetica, sans-serif" font-size="18" font-weight="700" fill="#1F2933">Service Offers</text>
  <rect x="765" y="390" width="190" height="90" rx="16" fill="#E6DED1" stroke="#C7BDAF" stroke-width="2"/>
  <text x="860.0" y="425" text-anchor="middle" font-family="Arial, Helvetica, sans-serif" font-size="18" font-weight="700" fill="#1F2933">Work Episodes</text>
  <rect x="1035" y="390" width="190" height="90" rx="16" fill="#FFFFFF" stroke="#C7BDAF" stroke-width="2"/>
  <text x="1130.0" y="425" text-anchor="middle" font-family="Arial, Helvetica, sans-serif" font-size="18" font-weight="700" fill="#1F2933">Proof Items</text>
  <rect x="360" y="630" width="190" height="90" rx="16" fill="#FFFFFF" stroke="#C7BDAF" stroke-width="2"/>
  <text x="455.0" y="665" text-anchor="middle" font-family="Arial, Helvetica, sans-serif" font-size="18" font-weight="700" fill="#1F2933">AI Logs</text>
  <rect x="760" y="630" width="190" height="90" rx="16" fill="#E6DED1" stroke="#C7BDAF" stroke-width="2"/>
  <text x="855.0" y="665" text-anchor="middle" font-family="Arial, Helvetica, sans-serif" font-size="18" font-weight="700" fill="#1F2933">Payment Ledger</text>
  <defs><marker id="arrow" markerWidth="10" markerHeight="10" refX="8" refY="3" orient="auto" markerUnits="strokeWidth"><path d="M0,0 L0,6 L9,3 z" fill="#11263C"/></marker></defs>
  <line x1="280" y1="195" x2="360" y2="195" stroke="#11263C" stroke-width="2.5" marker-end="url(#arrow)"/>
  <defs><marker id="arrow" markerWidth="10" markerHeight="10" refX="8" refY="3" orient="auto" markerUnits="strokeWidth"><path d="M0,0 L0,6 L9,3 z" fill="#11263C"/></marker></defs>
  <line x1="550" y1="195" x2="630" y2="195" stroke="#11263C" stroke-width="2.5" marker-end="url(#arrow)"/>
  <defs><marker id="arrow" markerWidth="10" markerHeight="10" refX="8" refY="3" orient="auto" markerUnits="strokeWidth"><path d="M0,0 L0,6 L9,3 z" fill="#11263C"/></marker></defs>
  <line x1="820" y1="195" x2="900" y2="195" stroke="#11263C" stroke-width="2.5" marker-end="url(#arrow)"/>
  <defs><marker id="arrow" markerWidth="10" markerHeight="10" refX="8" refY="3" orient="auto" markerUnits="strokeWidth"><path d="M0,0 L0,6 L9,3 z" fill="#11263C"/></marker></defs>
  <line x1="455" y1="240" x2="320" y2="390" stroke="#11263C" stroke-width="2.5" marker-end="url(#arrow)"/>
  <defs><marker id="arrow" markerWidth="10" markerHeight="10" refX="8" refY="3" orient="auto" markerUnits="strokeWidth"><path d="M0,0 L0,6 L9,3 z" fill="#11263C"/></marker></defs>
  <line x1="455" y1="240" x2="590" y2="390" stroke="#11263C" stroke-width="2.5" marker-end="url(#arrow)"/>
  <defs><marker id="arrow" markerWidth="10" markerHeight="10" refX="8" refY="3" orient="auto" markerUnits="strokeWidth"><path d="M0,0 L0,6 L9,3 z" fill="#11263C"/></marker></defs>
  <line x1="855" y1="240" x2="855" y2="390" stroke="#11263C" stroke-width="2.5" marker-end="url(#arrow)"/>
  <defs><marker id="arrow" markerWidth="10" markerHeight="10" refX="8" refY="3" orient="auto" markerUnits="strokeWidth"><path d="M0,0 L0,6 L9,3 z" fill="#11263C"/></marker></defs>
  <line x1="955" y1="435" x2="1035" y2="435" stroke="#11263C" stroke-width="2.5" marker-end="url(#arrow)"/>
  <defs><marker id="arrow" markerWidth="10" markerHeight="10" refX="8" refY="3" orient="auto" markerUnits="strokeWidth"><path d="M0,0 L0,6 L9,3 z" fill="#11263C"/></marker></defs>
  <line x1="855" y1="480" x2="855" y2="630" stroke="#11263C" stroke-width="2.5" marker-end="url(#arrow)"/>
  <defs><marker id="arrow" markerWidth="10" markerHeight="10" refX="8" refY="3" orient="auto" markerUnits="strokeWidth"><path d="M0,0 L0,6 L9,3 z" fill="#11263C"/></marker></defs>
  <line x1="590" y1="480" x2="455" y2="630" stroke="#11263C" stroke-width="2.5" marker-end="url(#arrow)"/>
</svg>